#N canvas 0 49 1920 1006 10;
#X obj 143 467 hradio 14 0 1 9 \$0-sndspd \$0-rcvspd SPEED 1/1 0 -10
0 12 #fcfcfc #000000 #000000 0;
#N canvas 5 49 450 300 \$0-circle 0;
#X obj 180 95 r 1048-tgl0;
#X obj 208 101 r 1048-tgl1;
#X obj 233 117 r 1048-tgl2;
#X obj 249 142 r 1048-tgl3;
#X obj 255 170 r 1048-tgl4;
#X obj 249 198 r 1048-tgl5;
#X obj 233 223 r 1048-tgl6;
#X obj 208 239 r 1048-tgl7;
#X obj 180 245 r 1048-tgl8;
#X obj 152 239 r 1048-tgl9;
#X obj 127 223 r 1048-tgl10;
#X obj 111 198 r 1048-tgl11;
#X obj 105 170 r 1048-tgl12;
#X obj 111 142 r 1048-tgl13;
#X obj 127 117 r 1048-tgl14;
#X obj 152 101 r 1048-tgl15;
#X obj 180 105 tgl 15 0 empty empty empty 17 7 0 10 #fcfcfc #000000
#fcfcfc 0 1;
#X obj 208 111 tgl 15 0 empty empty empty 17 7 0 10 #fcfcfc #000000
#fcfcfc 0 1;
#X obj 233 127 tgl 15 0 empty empty empty 17 7 0 10 #fcfcfc #000000
#fcfcfc 0 1;
#X obj 249 152 tgl 15 0 empty empty empty 17 7 0 10 #fcfcfc #000000
#fcfcfc 0 1;
#X obj 255 180 tgl 15 0 empty empty empty 17 7 0 10 #fcfcfc #000000
#fcfcfc 0 1;
#X obj 249 208 tgl 15 0 empty empty empty 17 7 0 10 #fcfcfc #000000
#fcfcfc 0 1;
#X obj 233 233 tgl 15 0 empty empty empty 17 7 0 10 #fcfcfc #000000
#fcfcfc 0 1;
#X obj 208 249 tgl 15 0 empty empty empty 17 7 0 10 #fcfcfc #000000
#fcfcfc 0 1;
#X obj 180 255 tgl 15 0 empty empty empty 17 7 0 10 #fcfcfc #000000
#fcfcfc 0 1;
#X obj 152 249 tgl 15 0 empty empty empty 17 7 0 10 #fcfcfc #000000
#fcfcfc 0 1;
#X obj 127 233 tgl 15 0 empty empty empty 17 7 0 10 #fcfcfc #000000
#fcfcfc 0 1;
#X obj 111 208 tgl 15 0 empty empty empty 17 7 0 10 #fcfcfc #000000
#fcfcfc 0 1;
#X obj 105 180 tgl 15 0 empty empty empty 17 7 0 10 #fcfcfc #000000
#fcfcfc 0 1;
#X obj 111 152 tgl 15 0 empty empty empty 17 7 0 10 #fcfcfc #000000
#fcfcfc 0 1;
#X obj 127 127 tgl 15 0 empty empty empty 17 7 0 10 #fcfcfc #000000
#fcfcfc 0 1;
#X obj 152 111 tgl 15 0 empty empty empty 17 7 0 10 #fcfcfc #000000
#fcfcfc 0 1;
#X connect 0 0 16 0;
#X connect 1 0 17 0;
#X connect 2 0 18 0;
#X connect 3 0 19 0;
#X connect 4 0 20 0;
#X connect 5 0 21 0;
#X connect 6 0 22 0;
#X connect 7 0 23 0;
#X connect 8 0 24 0;
#X connect 9 0 25 0;
#X connect 10 0 26 0;
#X connect 11 0 27 0;
#X connect 12 0 28 0;
#X connect 13 0 29 0;
#X connect 14 0 30 0;
#X connect 15 0 31 0;
#X coords 0 -1 1 1 175 175 2 100 100;
#X restore 105 271 pd \$0-circle;
#X obj 105 453 tgl 28 1 \$0-sndtgl \$0-rcvtgl ON 6 15 0 14 #000000
#000000 #fcfcfc 1 1;
#X obj 420 130 inlet;
#X text 420 100 input for the list elements;
#X obj 100 100 table \$0-btsacc 32;
#X obj 420 160 tabwrite \$0-btsacc;
#X obj 560 140 loadbang;
#X msg 560 170 16;
#X obj 630 130 inlet;
#X text 620 100 number of steps;
#X obj 860 130 inlet;
#N canvas 1040 228 763 577 \$0-drawcircle 0;
#X obj 555 491 s pd-\$0-circle;
#X obj 295 342 cos;
#X obj 339 342 sin;
#X obj 295 149 until;
#X obj 295 171 i;
#X obj 327 171 + 1;
#X obj 295 215 t b b;
#X msg 313 232 0;
#X obj 350 237 /;
#X obj 295 254 *;
#X obj 295 320 t f f;
#X obj 295 386 i;
#X obj 339 386 i;
#X obj 295 430 pack f f;
#X msg 295 474 obj \$1 \$2 tgl;
#X obj 327 193 - 1;
#X msg 555 260 clear;
#X obj 295 298 - 1.57079;
#X obj 295 276 * 6.28319;
#X msg 350 215 1 \$1;
#X obj 295 193 sel;
#X msg 165 474 connect \$1 0 \$2 0;
#X obj 165 254 t f f;
#X obj 202 276 +;
#X obj 165 293 pack;
#X obj 304 127 t b f f;
#X obj 165 149 until;
#X obj 165 171 i;
#X obj 197 171 + 1;
#X obj 165 215 t b b;
#X msg 183 232 0;
#X obj 197 193 - 1;
#X obj 165 193 sel;
#X obj 174 127 t b f f;
#X msg 397 474 obj \$1 \$2 r \$4-tgl\$3;
#X obj 397 452 pack f f f \$0;
#X obj 400 364 cos;
#X obj 444 364 sin;
#X obj 400 149 until;
#X obj 400 171 i;
#X obj 432 171 + 1;
#X obj 400 215 t b b;
#X msg 418 232 0;
#X obj 455 259 /;
#X obj 400 276 *;
#X obj 400 342 t f f;
#X obj 400 408 i;
#X obj 444 408 i;
#X obj 432 193 - 1;
#X obj 400 320 - 1.57079;
#X obj 400 298 * 6.28319;
#X msg 455 237 1 \$1;
#X obj 400 193 sel;
#X obj 409 127 t b f f;
#X obj 512 72 r \$0-guistp;
#X obj 295 407 + 180;
#X obj 339 408 + 180;
#X obj 295 364 * 75;
#X obj 339 364 * 75;
#X obj 400 386 * 75;
#X obj 444 386 * 75;
#X obj 400 430 + 180;
#X obj 444 430 + 170;
#X obj 481 110 t f f f f b;
#X obj 22 171 i;
#X obj 54 171 + 1;
#X obj 22 193 sel;
#X obj 22 215 t b b;
#X msg 40 232 0;
#X obj 54 193 - 1;
#X obj 22 149 until;
#X obj 22 321 tabread \$0-btsacc;
#X obj 22 343 sel 0 1 2;
#X msg 22 365 color 0 0;
#X msg 42 385 color 11 11;
#X msg 62 405 color 22 22;
#X obj 22 466 s;
#X obj 59 427 pack f \$0;
#X msg 59 449 symbol \$2-tgl\$1;
#X obj 400 254 t f f;
#X obj 22 105 bang;
#X obj 31 127 t b f f;
#X obj 22 254 t f f;
#X obj 472 42 loadbang;
#X msg 472 72 16;
#X obj 428 10 inlet;
#X obj 17 35 inlet;
#X connect 1 0 57 0;
#X connect 2 0 58 0;
#X connect 3 0 4 0;
#X connect 4 0 5 0;
#X connect 4 0 20 0;
#X connect 4 0 9 0;
#X connect 5 0 4 1;
#X connect 6 0 7 0;
#X connect 6 1 3 1;
#X connect 7 0 4 1;
#X connect 8 0 9 1;
#X connect 9 0 18 0;
#X connect 10 0 1 0;
#X connect 10 1 2 0;
#X connect 11 0 55 0;
#X connect 12 0 56 0;
#X connect 13 0 14 0;
#X connect 14 0 0 0;
#X connect 15 0 20 1;
#X connect 16 0 0 0;
#X connect 17 0 10 0;
#X connect 18 0 17 0;
#X connect 19 0 8 0;
#X connect 20 0 6 0;
#X connect 21 0 0 0;
#X connect 22 0 24 0;
#X connect 22 1 23 0;
#X connect 23 0 24 1;
#X connect 24 0 21 0;
#X connect 25 0 3 0;
#X connect 25 1 15 0;
#X connect 25 2 19 0;
#X connect 26 0 27 0;
#X connect 27 0 28 0;
#X connect 27 0 32 0;
#X connect 27 0 22 0;
#X connect 28 0 27 1;
#X connect 29 0 30 0;
#X connect 29 1 26 1;
#X connect 30 0 27 1;
#X connect 31 0 32 1;
#X connect 32 0 29 0;
#X connect 33 0 26 0;
#X connect 33 1 31 0;
#X connect 33 2 23 1;
#X connect 34 0 0 0;
#X connect 35 0 34 0;
#X connect 36 0 59 0;
#X connect 37 0 60 0;
#X connect 38 0 39 0;
#X connect 39 0 40 0;
#X connect 39 0 52 0;
#X connect 39 0 79 0;
#X connect 40 0 39 1;
#X connect 41 0 42 0;
#X connect 41 1 38 1;
#X connect 42 0 39 1;
#X connect 43 0 44 1;
#X connect 44 0 50 0;
#X connect 45 0 36 0;
#X connect 45 1 37 0;
#X connect 46 0 61 0;
#X connect 47 0 62 0;
#X connect 48 0 52 1;
#X connect 49 0 45 0;
#X connect 50 0 49 0;
#X connect 51 0 43 0;
#X connect 52 0 41 0;
#X connect 53 0 38 0;
#X connect 53 1 48 0;
#X connect 53 2 51 0;
#X connect 55 0 13 0;
#X connect 56 0 13 1;
#X connect 57 0 11 0;
#X connect 58 0 12 0;
#X connect 59 0 46 0;
#X connect 60 0 47 0;
#X connect 61 0 35 0;
#X connect 62 0 35 1;
#X connect 63 0 81 0;
#X connect 63 1 33 0;
#X connect 63 2 25 0;
#X connect 63 3 53 0;
#X connect 63 4 16 0;
#X connect 64 0 65 0;
#X connect 64 0 66 0;
#X connect 64 0 82 0;
#X connect 65 0 64 1;
#X connect 66 0 67 0;
#X connect 67 0 68 0;
#X connect 67 1 70 1;
#X connect 68 0 64 1;
#X connect 69 0 66 1;
#X connect 70 0 64 0;
#X connect 71 0 72 0;
#X connect 72 0 73 0;
#X connect 72 1 74 0;
#X connect 72 2 75 0;
#X connect 73 0 76 0;
#X connect 74 0 76 0;
#X connect 75 0 76 0;
#X connect 77 0 78 0;
#X connect 78 0 76 1;
#X connect 79 0 44 0;
#X connect 79 1 35 2;
#X connect 80 0 70 0;
#X connect 81 0 70 0;
#X connect 81 1 69 0;
#X connect 82 0 71 0;
#X connect 82 1 77 0;
#X connect 83 0 84 0;
#X connect 84 0 63 0;
#X connect 85 0 63 0;
#X connect 86 0 80 0;
#X restore 440 230 pd \$0-drawcircle;
#X obj 862 390 %;
#X obj 862 489 tabread \$0-btsacc;
#X obj 862 456 t f f;
#X obj 990 484 pack f \$0;
#X msg 990 573 symbol \$2-tgl\$1;
#X obj 860 611 s;
#X obj 862 511 sel 0 1 2;
#X msg 862 533 color 0 0;
#X msg 882 553 color 11 11;
#X msg 902 573 color 22 22;
#X obj 862 434 i;
#X obj 862 412 t f b b f;
#X msg 902 456 color 10 10;
#X obj 1142 429 tabread \$0-btsacc;
#X obj 1142 451 sel 1 2, f 23;
#X obj 1142 500 i;
#X obj 1221 500 i;
#X obj 1142 522 outlet;
#X obj 1221 522 outlet;
#X text 1142 542 VELOCITY;
#X text 1221 542 ACCENT VELOCITY;
#X obj 862 341 i;
#X obj 862 363 change;
#X obj 997 236 r \$0-sndspd;
#X obj 862 319 /;
#X obj 997 258 sel 0 1 2 3 4 5 6 7 8;
#X msg 997 280 1;
#X msg 1013 302 2;
#X msg 1029 280 3;
#X msg 1045 302 4;
#X msg 1061 280 6;
#X msg 1125 280 16;
#X msg 1077 302 8;
#X msg 1093 280 9;
#X msg 1109 302 12;
#X obj 862 264 spigot;
#X obj 910 230 r \$0-sndtgl;
#X text 860 100 CLOCK;
#X obj 1080 90 bng 15 250 50 0 empty empty empty 17 7 0 10 #fcfcfc
#000000 #000000;
#X text 1270 290 velocity;
#X text 1340 290 accent velocity;
#X floatatom 1270 320 5 0 0 0 - - -, f 5;
#X floatatom 1340 320 5 0 0 0 - - -, f 5;
#X connect 3 0 6 0;
#X connect 3 0 12 0;
#X connect 7 0 8 0;
#X connect 8 0 12 1;
#X connect 8 0 13 1;
#X connect 9 0 12 1;
#X connect 9 0 13 1;
#X connect 11 0 48 0;
#X connect 13 0 24 0;
#X connect 14 0 19 0;
#X connect 15 0 14 0;
#X connect 15 1 16 0;
#X connect 16 0 17 0;
#X connect 17 0 18 1;
#X connect 19 0 20 0;
#X connect 19 1 21 0;
#X connect 19 2 22 0;
#X connect 20 0 18 0;
#X connect 21 0 18 0;
#X connect 22 0 18 0;
#X connect 23 0 15 0;
#X connect 24 0 23 1;
#X connect 24 1 23 0;
#X connect 24 2 25 0;
#X connect 24 3 16 0;
#X connect 24 3 26 0;
#X connect 25 0 18 0;
#X connect 26 0 27 0;
#X connect 27 0 28 0;
#X connect 27 1 29 0;
#X connect 28 0 30 0;
#X connect 29 0 31 0;
#X connect 34 0 35 0;
#X connect 35 0 13 0;
#X connect 36 0 38 0;
#X connect 37 0 34 0;
#X connect 38 0 39 0;
#X connect 38 1 40 0;
#X connect 38 2 41 0;
#X connect 38 3 42 0;
#X connect 38 4 43 0;
#X connect 38 5 45 0;
#X connect 38 6 46 0;
#X connect 38 7 47 0;
#X connect 38 8 44 0;
#X connect 39 0 37 1;
#X connect 40 0 37 1;
#X connect 41 0 37 1;
#X connect 42 0 37 1;
#X connect 43 0 37 1;
#X connect 44 0 37 1;
#X connect 45 0 37 1;
#X connect 46 0 37 1;
#X connect 47 0 37 1;
#X connect 48 0 37 0;
#X connect 49 0 48 1;
#X connect 51 0 39 0;
#X connect 54 0 28 1;
#X connect 55 0 29 1;
#X coords 0 -1 1 1 190 223 2 98 265;
