#N canvas 0 49 1920 1006 12;
#X obj 270 649 euc_steps_circle;
#X obj 270 600 euc;
#X obj 25 102 f;
#X obj 56 102 + 1;
#X msg 50 40 0;
#X msg 50 40 0;
#X obj 23 125 s timestep;
#X text 10 10 CLOCK;
#X obj 453 611 r timestep;
#X text 1540 40 TODO;
#X text 1540 100 -- midi in;
#X obj 70 410 save_params;
#A saved 4 0 0 0;
#X obj 629 651 euc_steps_circle;
#X obj 960 643 euc_steps_circle;
#X obj 1260 635 euc_steps_circle;
#X obj 270 490 sliders;
#X msg 520 501 32;
#X msg 480 501 16;
#X text 1540 80 -- save state input range combined with sliders?;
#X obj 79 528 unpack f f f f;
#X obj 630 600 euc;
#X obj 750 600 r timestep;
#X obj 602 482 sliders;
#X msg 852 493 32;
#X msg 812 493 16;
#X obj 980 590 euc;
#X obj 1080 590 r timestep;
#X obj 942 482 sliders;
#X msg 1192 493 32;
#X msg 1152 493 16;
#X obj 1262 592 euc;
#X obj 1400 590 r timestep;
#X obj 1262 482 sliders;
#X msg 1512 493 32;
#X msg 1472 493 16;
#X msg 12 42 1;
#X obj 270 900 midi_out;
#A saved 73 127 400;
#X obj 390 900 midi_out;
#A saved 69 127 400;
#X obj 620 900 midi_out;
#A saved 75 100 400;
#X obj 740 900 midi_out;
#A saved 71 127 400;
#X obj 960 900 midi_out;
#A saved 79 127 400;
#X obj 1080 900 midi_out;
#A saved 81 127 400;
#X obj 1250 890 midi_out;
#A saved 80 127 400;
#X obj 1370 890 midi_out;
#A saved 77 127 400;
#X floatatom 510 60 3 0 0 0 - - -, f 3;
#X floatatom 537 60 3 0 0 0 - - -, f 3;
#X floatatom 564 60 3 0 0 0 - - -, f 3;
#X obj 512 23 ctlin, f 7;
#X obj 515 104 sel 20 21 22 23;
#X obj 509 161 i;
#X obj 542 160 i;
#X obj 572 160 i;
#X obj 605 159 i;
#X obj 460 100 * 1;
#X obj 759 30 notein;
#X floatatom 720 60 3 0 0 0 - - -, f 3;
#X floatatom 760 60 3 0 0 0 - - -, f 3;
#X floatatom 800 60 3 0 0 0 - - -, f 3;
#X text 710 100 if right note and velocity>0 \, then route control
input;
#X obj 70 350 save_params;
#A saved 8 0 0 4;
#X obj 70 285 save_params;
#A saved 6 0 0 2;
#X obj 70 225 save_params;
#A saved 2 0 0 2;
#X obj 591 402 save_params;
#A saved 4 2 0 0;
#X obj 580 560 unpack f f f f;
#X obj 591 342 save_params;
#A saved 8 0 0 4;
#X obj 591 277 save_params;
#A saved 6 0 0 2;
#X obj 591 217 save_params;
#A saved 12 0 0 3;
#X obj 932 405 save_params;
#A saved -12 0 -8 -6;
#X obj 921 560 unpack f f f f;
#X obj 932 345 save_params;
#A saved 8 0 0 4;
#X obj 932 280 save_params;
#A saved 6 8 8 2;
#X obj 932 220 save_params;
#A saved 12 0 0 3;
#X obj 1263 409 save_params;
#A saved 4 2 0 3;
#X obj 1252 564 unpack f f f f;
#X obj 1263 349 save_params;
#A saved 8 0 0 2;
#X obj 1263 284 save_params;
#A saved 6 0 8 2;
#X obj 1263 224 save_params;
#A saved 12 4 0 3;
#X obj 23 75 metro 90;
#X floatatom 100 40 5 0 0 0 - - -, f 5;
#X connect 0 0 36 0;
#X connect 0 1 37 0;
#X connect 1 0 0 0;
#X connect 1 1 0 1;
#X connect 2 0 3 0;
#X connect 2 0 6 0;
#X connect 3 0 2 1;
#X connect 5 0 77 0;
#X connect 8 0 0 2;
#X connect 11 0 19 0;
#X connect 12 0 38 0;
#X connect 12 1 39 0;
#X connect 13 0 40 0;
#X connect 13 1 41 0;
#X connect 14 0 42 0;
#X connect 14 1 43 0;
#X connect 15 0 1 0;
#X connect 15 1 1 1;
#X connect 15 2 1 2;
#X connect 15 3 1 3;
#X connect 15 4 1 4;
#X connect 16 0 15 4;
#X connect 17 0 15 4;
#X connect 19 0 1 0;
#X connect 19 1 1 1;
#X connect 19 2 1 2;
#X connect 19 3 1 3;
#X connect 20 0 12 0;
#X connect 20 1 12 1;
#X connect 21 0 12 2;
#X connect 22 0 20 0;
#X connect 22 1 20 1;
#X connect 22 2 20 2;
#X connect 22 3 20 3;
#X connect 22 4 20 4;
#X connect 23 0 22 4;
#X connect 24 0 22 4;
#X connect 25 0 13 0;
#X connect 25 1 13 1;
#X connect 26 0 13 2;
#X connect 27 0 25 0;
#X connect 27 1 25 1;
#X connect 27 2 25 2;
#X connect 27 3 25 3;
#X connect 27 4 25 4;
#X connect 28 0 27 4;
#X connect 29 0 27 4;
#X connect 30 0 14 0;
#X connect 30 1 14 1;
#X connect 31 0 14 2;
#X connect 32 0 30 0;
#X connect 32 1 30 1;
#X connect 32 2 30 2;
#X connect 32 3 30 3;
#X connect 32 4 30 4;
#X connect 33 0 32 4;
#X connect 34 0 32 4;
#X connect 35 0 77 0;
#X connect 44 0 53 0;
#X connect 45 0 48 0;
#X connect 47 0 44 0;
#X connect 47 1 45 0;
#X connect 47 2 46 0;
#X connect 48 0 49 0;
#X connect 48 1 50 0;
#X connect 48 2 51 0;
#X connect 48 3 52 0;
#X connect 53 0 49 1;
#X connect 53 0 50 1;
#X connect 53 0 51 1;
#X connect 53 0 52 1;
#X connect 54 0 55 0;
#X connect 54 1 56 0;
#X connect 54 2 57 0;
#X connect 59 0 19 0;
#X connect 60 0 19 0;
#X connect 61 0 19 0;
#X connect 62 0 63 0;
#X connect 63 0 20 0;
#X connect 63 1 20 1;
#X connect 63 2 20 2;
#X connect 63 3 20 3;
#X connect 64 0 63 0;
#X connect 65 0 63 0;
#X connect 66 0 63 0;
#X connect 67 0 68 0;
#X connect 68 0 25 0;
#X connect 68 1 25 1;
#X connect 68 2 25 2;
#X connect 68 3 25 3;
#X connect 69 0 68 0;
#X connect 70 0 68 0;
#X connect 71 0 68 0;
#X connect 72 0 73 0;
#X connect 73 0 30 0;
#X connect 73 1 30 1;
#X connect 73 2 30 2;
#X connect 73 3 30 3;
#X connect 74 0 73 0;
#X connect 75 0 73 0;
#X connect 76 0 73 0;
#X connect 77 0 2 0;
#X connect 78 0 77 1;
