#N canvas 741 394 450 300 12;
#X obj 120 10 inlet;
#X obj 152 98 moses 0;
#X obj 200 250 outlet;
#X obj 140 194 random;
#X obj 150 130 * -1;
#X obj 140 170 bng 15 250 50 0 empty empty empty 17 7 0 10 #fcfcfc
#000000 #000000;
#X obj 150 60 i;
#X obj 170 10 inlet;
#X connect 0 0 6 0;
#X connect 1 0 4 0;
#X connect 1 1 2 0;
#X connect 3 0 2 0;
#X connect 4 0 3 1;
#X connect 4 0 5 0;
#X connect 5 0 3 0;
#X connect 6 0 1 0;
#X connect 7 0 6 1;
