#N canvas 0 49 1920 1006 12;
#X obj 120 390 outlet;
#X obj 408 156 f;
#X obj 348 59 savestate;
#X text 422 59 right outlet gets bang when parent patch is saved. In
response we send 'savestate' one or more lists that will be stored
as part of the parent patch, f 35;
#X text 479 218 Left outlet returns the list or lists to the abstraction
which can use them to restore its state when it is reloaded., f 38
;
#X text 449 151 In response \, we build and send a list of parameters
we want to save, f 34;
#X obj 43 16 cnv 15 100 60 empty empty empty 20 12 0 14 #e0e0e0 #404040
0;
#X obj 53 36 bng 34 250 50 0 empty empty empty 17 7 0 10 #fcfcfc #000000
#000000;
#X floatatom 93 50 3 -32 32 0 - - -, f 3;
#X floatatom 123 50 3 -32 32 0 - - -, f 3;
#X floatatom 153 50 3 -32 32 0 - - -, f 3;
#X floatatom 183 50 3 -32 32 0 - - -, f 3;
#X text 93 23 bts rot pad acc;
#X obj 348 230 unpack f f f f;
#X obj 408 194 pack f f f f;
#X obj 115 331 pack f f f f;
#X obj 40 150 rnd_if_neg;
#X obj 80 180 rnd_if_neg;
#X obj 130 210 rnd_if_neg;
#X obj 160 240 rnd_if_neg;
#X connect 1 0 14 0;
#X connect 2 0 13 0;
#X connect 2 1 1 0;
#X connect 7 0 16 0;
#X connect 7 0 17 0;
#X connect 7 0 18 0;
#X connect 7 0 19 0;
#X connect 8 0 1 1;
#X connect 8 0 16 1;
#X connect 9 0 14 1;
#X connect 9 0 17 1;
#X connect 10 0 14 2;
#X connect 10 0 18 1;
#X connect 11 0 14 3;
#X connect 11 0 19 1;
#X connect 13 0 8 0;
#X connect 13 1 9 0;
#X connect 13 2 10 0;
#X connect 13 3 11 0;
#X connect 14 0 2 0;
#X connect 15 0 0 0;
#X connect 16 0 15 0;
#X connect 17 0 15 1;
#X connect 18 0 15 2;
#X connect 19 0 15 3;
#X coords 0 -1 1 1 168 62 2 44 15;
