#N canvas 0 49 1920 1006 12;
#X obj 240 209 euc_steps_circle;
#X msg 320 110 32;
#X msg 360 110 16;
#X obj 240 160 euc;
#X floatatom 221 111 2 0 0 0 - - -, f 2;
#X floatatom 241 111 2 0 0 0 - - -, f 2;
#X floatatom 261 111 2 0 0 0 - - -, f 2;
#X floatatom 281 111 2 0 0 0 - - -, f 2;
#X obj 240 70 bng 15 250 50 0 empty empty empty 17 7 0 10 #fcfcfc #000000
#000000;
#X obj 82 137 f;
#X obj 113 137 + 1;
#X obj 80 110 metro 101;
#X msg 32 72 1;
#X msg 97 74 0;
#X obj 80 180 s timestep;
#X text 30 40 CLOCK;
#X obj 423 171 r timestep;
#X obj 240 502 makenote;
#X obj 240 458 t b f b;
#X obj 423 502 makenote;
#X obj 423 458 t b f b;
#X obj 240 524 noteout 1;
#X obj 423 524 noteout 1;
#X msg 469 480 400;
#X msg 286 480 400;
#X msg 423 480 69;
#X msg 240 480 73;
#X text 580 30 TODO;
#X text 580 70 -- proper input handling \, ranges etc...;
#X text 580 90 -- midi in;
#X text 580 50, f 68;
#X connect 0 0 18 0;
#X connect 0 1 20 0;
#X connect 1 0 3 4;
#X connect 2 0 3 4;
#X connect 3 0 0 0;
#X connect 3 1 0 1;
#X connect 4 0 3 0;
#X connect 5 0 3 1;
#X connect 6 0 3 2;
#X connect 7 0 3 3;
#X connect 8 0 4 0;
#X connect 8 0 5 0;
#X connect 8 0 6 0;
#X connect 8 0 7 0;
#X connect 9 0 10 0;
#X connect 9 0 14 0;
#X connect 10 0 9 1;
#X connect 11 0 9 0;
#X connect 12 0 11 0;
#X connect 13 0 11 0;
#X connect 16 0 0 2;
#X connect 17 0 21 0;
#X connect 17 1 21 1;
#X connect 18 0 26 0;
#X connect 18 1 17 1;
#X connect 18 2 24 0;
#X connect 19 0 22 0;
#X connect 19 1 22 1;
#X connect 20 0 25 0;
#X connect 20 1 19 1;
#X connect 20 2 23 0;
#X connect 23 0 19 2;
#X connect 24 0 17 2;
#X connect 25 0 19 0;
#X connect 26 0 17 0;
