#N canvas 745 112 697 566 12;
#X obj 180 136 hsl 128 14 0 127 0 0 \$0-sldbts empty BTS -20 5 0 10
#fcfcfc #000000 #000000 9900 1;
#X obj 315 136 nbx 2 14 -1e+37 1e+37 0 0 empty \$0-nmbbts empty 0 -8
0 10 #fcfcfc #000000 #000000 12 256 0;
#X obj 180 153 hsl 128 14 0 127 0 0 \$0-sldrot empty ROT -20 5 0 10
#fcfcfc #000000 #000000 12300 1;
#X obj 180 170 hsl 128 14 0 127 0 0 \$0-sldpad empty PAD -20 5 0 10
#fcfcfc #000000 #000000 7200 1;
#X obj 180 187 hsl 128 14 0 127 0 0 \$0-sldacc empty ACC -20 5 0 10
#fcfcfc #000000 #000000 7700 1;
#X obj 315 153 nbx 2 14 -1e+37 1e+37 0 0 empty \$0-nmbrot empty 0 -8
0 10 #fcfcfc #000000 #000000 15 256 0;
#X obj 315 170 nbx 2 14 -1e+37 1e+37 0 0 empty \$0-nmbpad empty 0 -8
0 10 #fcfcfc #000000 #000000 9 256 0;
#X obj 315 187 nbx 2 14 -1e+37 1e+37 0 0 empty \$0-nmbacc empty 0 -8
0 10 #fcfcfc #000000 #000000 9 256 0;
#X obj 53 272 r \$0-sldbts;
#X obj 60 320 / 127;
#X obj 60 380 *;
#X obj 110 340 r \$0-steps;
#X obj 60 450 s \$0-nmbbts;
#X obj 211 320 / 127;
#X obj 211 380 *;
#X obj 261 340 r \$0-steps;
#X obj 204 272 r \$0-sldrot;
#X obj 211 450 s \$0-nmbrot;
#X obj 360 320 / 127;
#X obj 360 380 *;
#X obj 410 340 r \$0-steps;
#X obj 353 272 r \$0-sldpad;
#X obj 360 450 s \$0-nmbpad;
#X obj 510 320 / 127;
#X obj 510 380 *;
#X obj 560 340 r \$0-steps;
#X obj 503 272 r \$0-sldacc;
#X obj 510 450 s \$0-nmbacc;
#X obj 93 417 i;
#X obj 244 414 i;
#X obj 387 420 i;
#X obj 551 414 i;
#X obj 30 80 cnv 15 100 60 empty empty empty 20 12 0 14 #e0e0e0 #404040
0;
#X obj 324 38 inlet;
#X text 320 10 steps;
#X obj 370 90 s \$0-steps;
#X obj 380 10 loadbang;
#X msg 380 46 16;
#X obj 568 90 r \$0-steps;
#X obj 370 130 outlet;
#X obj 420 130 outlet;
#X obj 470 130 outlet;
#X obj 520 130 outlet;
#X obj 570 130 outlet;
#X obj 80 30 inlet;
#X obj 130 30 inlet;
#X obj 180 30 inlet;
#X obj 230 30 inlet;
#X connect 1 0 39 0;
#X connect 5 0 40 0;
#X connect 6 0 41 0;
#X connect 7 0 42 0;
#X connect 8 0 9 0;
#X connect 9 0 10 0;
#X connect 10 0 28 0;
#X connect 11 0 10 1;
#X connect 13 0 14 0;
#X connect 14 0 29 0;
#X connect 15 0 14 1;
#X connect 16 0 13 0;
#X connect 18 0 19 0;
#X connect 19 0 30 0;
#X connect 20 0 19 1;
#X connect 21 0 18 0;
#X connect 23 0 24 0;
#X connect 24 0 31 0;
#X connect 25 0 24 1;
#X connect 26 0 23 0;
#X connect 28 0 12 0;
#X connect 29 0 17 0;
#X connect 30 0 22 0;
#X connect 31 0 27 0;
#X connect 33 0 35 0;
#X connect 36 0 37 0;
#X connect 37 0 35 0;
#X connect 38 0 43 0;
#X connect 44 0 0 0;
#X connect 45 0 2 0;
#X connect 46 0 3 0;
#X connect 47 0 4 0;
#X coords 0 -1 1 1 193 73 2 156 132;
